<svg width="16" height="11" viewBox="0 0 16 11" xmlns="http://www.w3.org/2000/svg" fill="url(#uid_4845)"><path fill-rule="evenodd" clip-rule="evenodd" d="M1.47241 3.74953C1.75665 3.74953 1.99347 3.51738 1.99347 3.23876C1.99347 2.96014 1.75665 2.72799 1.47241 2.72799H1.18817C0.903933 2.72799 0.666992 2.96014 0.666992 3.23876C0.666992 3.51738 0.903933 3.74953 1.18817 3.74953H1.47241ZM12.226 9.92569C14.9262 8.71836 16.0632 5.65352 14.8315 3.09945C13.9788 1.2884 12.1787 0.22039 10.2837 0.127441H4.93063C4.45686 0.127441 4.12521 0.499012 4.12521 0.916945C4.12521 1.38124 4.50427 1.70634 4.93063 1.70634H6.3044C6.58864 1.70634 6.82547 1.93848 6.82547 2.21711C6.82547 2.49573 6.58864 2.72799 6.3044 2.72799H2.94096C2.65672 2.72799 2.41978 2.96014 2.41978 3.23876C2.41978 3.51738 2.65672 3.74953 2.94096 3.74953H5.35698C5.64122 3.74953 5.87805 3.98179 5.87805 4.26041C5.87805 4.53903 5.64122 4.77118 5.35698 4.77118H3.84097C3.55674 4.77118 3.31991 5.00333 3.31991 5.28195C3.31991 5.56057 3.55674 5.79283 3.84097 5.79283H4.88322C4.93063 6.35008 5.07275 6.90732 5.30957 7.41809C6.49393 9.97216 9.62055 11.0866 12.226 9.92569ZM7.37766 6.46674C6.68981 4.9984 7.34662 3.26147 8.84456 2.58721C10.3425 1.91294 12.1144 2.55678 12.8023 4.02512C13.4901 5.49346 12.8334 7.23039 11.3354 7.90465C9.83746 8.57892 8.06552 7.93508 7.37766 6.46674Z" fill="url(#paint0_linear_6413_12612)"></path><path d="M11.2312 3.56382L12.1786 5.14272C12.226 5.23555 12.226 5.28203 12.1786 5.37486L11.2312 6.95376C11.1838 7.0466 11.0891 7.0466 11.0417 7.0466H9.19412C9.09942 7.0466 9.05201 7.00012 9.00471 6.95376L8.05717 5.37486C8.00988 5.28203 8.00988 5.23555 8.05717 5.14272L9.00471 3.56382C9.05201 3.47098 9.14683 3.47098 9.19412 3.47098H11.0417C11.1365 3.42451 11.1838 3.47098 11.2312 3.56382Z" fill="url(#paint1_linear_6413_12612)"></path><defs><linearGradient id="paint0_linear_6413_12612" x1="0.666992" y1="0.127441" x2="15.3271" y2="0.127441" gradientUnits="userSpaceOnUse"><stop stop-color="var(--premium-tier-2-purple-for-gradients)"></stop><stop offset="0.502368" stop-color="var(--premium-tier-2-purple-for-gradients-2)"></stop><stop offset="1" stop-color="var(--premium-tier-2-pink-for-gradients)"></stop></linearGradient><linearGradient id="paint1_linear_6413_12612" x1="0.666992" y1="0.127441" x2="15.3271" y2="0.127441" gradientUnits="userSpaceOnUse"><stop stop-color="var(--premium-tier-2-purple-for-gradients)"></stop><stop offset="0.502368" stop-color="var(--premium-tier-2-purple-for-gradients-2)"></stop><stop offset="1" stop-color="var(--premium-tier-2-pink-for-gradients)"></stop></linearGradient></defs></svg>