<svg xmlns="http://www.w3.org/2000/svg" xmlns:xlink="http://www.w3.org/1999/xlink" version="1.1" baseProfile="tiny" x="0px" y="0px" viewBox="0 0 100 125" width="100" height="125" xml:space="preserve">
  <g>
    <path fill="#fff" d="M32,66.98v17.992c0,2.434,1.875,2.09,2.5,1.59C35.27,85.947,56,66.98,56,66.98h26c4.941,0,6-1.059,6-5.998   V19.719C88,13.92,87,13,82,13H18c-4.92,0-6,1-6,5.998v41.984c0,4.857,0.84,5.998,6,5.998H32z M36.52,43.988   c0,3.039-2.48,5.518-5.52,5.518s-5.52-2.479-5.52-5.518s2.48-5.52,5.52-5.52S36.52,40.953,36.52,43.988z M54.52,43.988   c0,3.039-2.48,5.518-5.52,5.518s-5.52-2.479-5.52-5.518s2.48-5.52,5.52-5.52S54.52,40.953,54.52,43.988z M72.52,43.988   c0,3.039-2.48,5.518-5.52,5.518s-5.52-2.479-5.52-5.518s2.48-5.52,5.52-5.52S72.52,40.953,72.52,43.988z"/>
  </g>
</svg>
