<?xml version="1.0" encoding="UTF-8" standalone="no"?>
<svg xmlns:dc="http://purl.org/dc/elements/1.1/"  xmlns:cc="http://creativecommons.org/ns#"  xmlns:rdf="http://www.w3.org/1999/02/22-rdf-syntax-ns#"  xmlns:svg="http://www.w3.org/2000/svg"  xmlns="http://www.w3.org/2000/svg"  xmlns:xlink="http://www.w3.org/1999/xlink"  xmlns:sodipodi="http://sodipodi.sourceforge.net/DTD/sodipodi-0.dtd"  xmlns:inkscape="http://www.inkscape.org/namespaces/inkscape"  width="118"  height="152"  version="1.1">
  <defs id="defs3762">
    <path id="a" d="M0 201.685361h117.560318V0H0z" />
    <path id="c" d="M0 201.685361h117.560318V0H0z" />
    <path id="e" d="M0 201.685361h117.560318V0H0z" />
    <path id="g" d="M0 201.685361h117.560318V0H0z" />
    <path id="i" d="M0 201.685361h117.560318V0H0z" />
  </defs>
  <g id="g3793" transform="translate(0.47086247,-57.680653)" style="fill:none;fill-rule:evenodd">
    <path
       d="M 73.508589,88.753919 V 75.920536 H 44.052181 v 12.833383 c 0,7.332825 -4.426127,14.008591 -11.265618,16.669131 -18.307287,7.12256 -31.2835286,24.89706 -31.2835286,45.70907 0,27.09053 21.9803186,49.05146 49.0947646,49.05146 h 16.365172 c 27.113694,0 49.094009,-21.96093 49.094009,-49.05146 0,-20.81201 -12.97549,-38.58651 -31.283525,-45.70907 -6.838739,-2.66054 -11.264866,-9.336306 -11.264866,-16.669131 z"
       id="path3764"
       style="fill:#e6ebf4" />
    <mask
       id="b"
       fill="#fff">
      <use
         xlink:href="#a"
         id="use3766"
         x="0"
         y="0"
         width="100%"
         height="100%" />
    </mask>
    <path
       d="M 44.052331,87.911301 H 73.508739 V 75.920461 H 44.052331"
       mask="url(#b)"
       id="path3769"
       style="fill:#c5cbd8" />
    <mask
       id="d"
       fill="#fff">
      <use
         xlink:href="#c"
         id="use3771"
         x="0"
         y="0"
         width="100%"
         height="100%" />
    </mask>
    <path
       d="m 82.82638,139.30378 c -20.529746,3.05553 -35.914841,-20.33216 -55.820013,-10.80212 -5.648217,5.87602 -9.138612,13.83963 -9.138612,22.63076 0,18.05985 14.653797,32.70072 32.730344,32.70072 H 66.96252 c 18.076548,0 32.729592,-14.64087 32.729592,-32.70072 0,-4.02198 -0.73656,-7.86749 -2.072892,-11.42164 -0.961286,-2.55691 -3.904522,-3.74113 -6.432127,-2.69884 -2.620051,1.08059 -5.446038,1.8578 -8.360713,2.29184"
       mask="url(#d)"
       style="fill:#0066ff" />
    <mask
       id="f"
       fill="#fff">
      <use
         xlink:href="#e"
         id="use3776"
         x="0"
         y="0"
         width="100%"
         height="100%" />
    </mask>
    <path
       d="m 82.82638,139.30378 c -20.529746,3.05553 -35.914841,-20.33216 -55.820013,-10.80212 -5.648217,5.87602 -9.138612,13.83963 -9.138612,22.63076 0,18.05985 14.653797,32.70072 32.730344,32.70072 H 66.96252 c 18.076548,0 32.729592,-14.64087 32.729592,-32.70072 0,-4.02198 -0.73656,-7.86749 -2.072892,-11.42164 -0.961286,-2.55691 -3.904522,-3.74113 -6.432127,-2.69884 -2.620051,1.08059 -5.446038,1.8578 -8.360713,2.29184 z"
       mask="url(#f)"
       id="path3779"
       style="stroke:#1a1c1e;stroke-width:3" />
    <mask
       id="h"
       fill="#fff">
      <use
         xlink:href="#g"
         id="use3781"
         x="0"
         y="0"
         width="100%"
         height="100%" />
    </mask>
    <path
       d="M 73.508589,88.753919 V 75.920536 H 44.052181 v 12.833383 c 0,7.332825 -4.426127,14.008591 -11.265618,16.669131 -18.307287,7.12256 -31.2835286,24.89706 -31.2835286,45.70907 0,27.09053 21.9803186,49.05146 49.0947646,49.05146 h 16.365172 c 27.113694,0 49.094009,-21.96093 49.094009,-49.05146 0,-20.81201 -12.97549,-38.58651 -31.283525,-45.70907 -6.838739,-2.66054 -11.264866,-9.336306 -11.264866,-16.669131 z"
       mask="url(#h)"
       id="path3784"
       style="stroke:#1a1c1e;stroke-width:3" />
    <mask
       id="j"
       fill="#fff">
      <use
         xlink:href="#i"
         id="use3786"
         x="0"
         y="0"
         width="100%"
         height="100%" />
    </mask>
    <path
       d="M 78.418065,78.923953 H 39.142103 c -5.422739,0 -9.818802,-4.392186 -9.818802,-9.810141 0,-5.417955 4.396063,-9.810141 9.818802,-9.810141 h 39.275962 c 5.422739,0 9.818803,4.392186 9.818803,9.810141 0,5.417955 -4.396064,9.810141 -9.818803,9.810141"
       mask="url(#j)"
       id="path3789"
       style="fill:#e6ebf4" />
    <path
       d="m 52.935101,59.303445 h 25.482738 c 5.422739,0 9.818803,4.392186 9.818803,9.810142 0,5.417955 -4.396064,9.810141 -9.818803,9.810141 h -39.27521 c -5.42349,0 -9.819554,-4.392186 -9.819554,-9.810141 0,-5.417956 4.396064,-9.810142 9.819554,-9.810142"
       id="path3791"
       style="stroke:#1a1c1e;stroke-width:3" />
  </g>
</svg>
