<svg xmlns="http://www.w3.org/2000/svg" width="16" height="16" viewBox="0 0 16 16" class="colorLockedVoice-2UlBjl icon-sxakjD da-colorLockedVoice da-icon"><path class="foreground-2W-aJk da-foreground" fill="currentColor" d="M10.8,7 L10.8,5.5 C10.8,4.1 9.4,3 8,3 C6.6,3 5.2,4.1 5.2,5.5 L5.2,7 C4.6,7 4,7.6 4,8.2 L4,11.7 C4,12.4 4.6,13 5.2,13 L10.7,13 C11.4,13 12,12.4 12,11.8 L12,8.3 C12,7.6 11.4,7 10.8,7 Z M9.5,7 L6.5,7 L6.5,5.5 C6.5,4.7 7.2,4.2 8,4.2 C8.8,4.2 9.5,4.7 9.5,5.5 L9.5,7 Z"></path></svg>
