<svg xmlns="http://www.w3.org/2000/svg" width="16" height="16" viewBox="0 0 16 16" class="colorMutedText-36M8WR icon-sxakjD da-colorMutedText da-icon"><path class="background-2OVjk_ da-background" fill="currentColor" d="M7.92,4.66666667 L6.50666667,4.66666667 L6.98,2 L5.64666667,2 L5.17333333,4.66666667 L2.50666667,4.66666667 L2.27333333,6 L4.94,6 L4.23333333,10 L1.56666667,10 L1.33333333,11.3333333 L4,11.3333333 L3.52666667,14 L4.86,14 L5.33333333,11.3333333 L9.33333333,11.3333333 L8.86,14 L10.1933333,14 L10.6666667,11.3333333 L13.3333333,11.3333333 L13.5666667,10 L12.2333333,10 L8.74333333,10 L5.56666667,10 L6.27333333,6 L7.92,6 L7.92,4.66666667 Z"></path><path class="foreground-2W-aJk da-foreground" fill="currentColor" fill-rule="nonzero" d="M15.1,3.2 L15.1,2 C15.1,0.88 14.05,0 13,0 C11.95,0 10.9,0.88 10.9,2 L10.9,3.2 C10.45,3.2 10,3.68 10,4.16 L10,6.96 C10,7.52 10.45,8 10.9,8 L15.025,8 C15.55,8 16,7.52 16,7.04 L16,4.24 C16,3.68 15.55,3.2 15.1,3.2 Z M14,3 L12,3 L12,1.92857143 C12,1.35714286 12.4666667,1 13,1 C13.5333333,1 14,1.35714286 14,1.92857143 L14,3 Z"></path></svg>
