<svg xmlns="http://www.w3.org/2000/svg" width="16" height="16" viewBox="0 0 16 16" class="colorDefaultVoice-3wYlhb icon-sxakjD da-colorDefaultVoice da-icon"><path class="background-2OVjk_ da-background" fill="currentColor" d="M13.6005009,10 C12.8887426,11.8438372 11.2906136,13.2480521 9.33333333,13.6933333 L9.33333333,12.3133333 C10.5512947,11.950895 11.5614504,11.1062412 12.1398042,10 L13.6005009,10 Z M10.7736513,8.99497564 C10.4978663,9.6613459 9.98676114,10.2040442 9.33333333,10.5133333 L9.33333333,8.99497564 L10.7736513,8.99497564 Z M2,5.84666667 L4.66666667,5.84666667 L8,2.51333333 L8,13.18 L4.66666667,9.84666667 L2,9.84666667 L2,5.84666667 Z"></path><path class="foreground-2W-aJk da-foreground" fill="currentColor" fill-rule="nonzero" d="M15.1,3.2 L15.1,2 C15.1,0.88 14.05,0 13,0 C11.95,0 10.9,0.88 10.9,2 L10.9,3.2 C10.45,3.2 10,3.68 10,4.16 L10,6.96 C10,7.52 10.45,8 10.9,8 L15.025,8 C15.55,8 16,7.52 16,7.04 L16,4.24 C16,3.68 15.55,3.2 15.1,3.2 Z M14,3 L12,3 L12,1.92857143 C12,1.35714286 12.4666667,1 13,1 C13.5333333,1 14,1.35714286 14,1.92857143 L14,3 Z"></path></svg>
