<?xml version="1.0" encoding="UTF-8" standalone="no"?>
<svg
   xmlns="http://www.w3.org/2000/svg"
   width="1920"
   height="1099"
   viewBox="0 0 300 1920"
   version="1.1">
  <g
     id="g40"
     transform="matrix(0,-1.0228398,-1,0,-442.58144,1954.9333)"
     style="fill:none;fill-rule:evenodd">
    <g
       style="fill:#0c0e0f">
      <path d="m 0,376.41247 c 0,0 446.31318,-265.20164 552.63233,-217.56201 144.01681,64.53125 -106.74349,216.37535 8.53878,260.85582 115.28227,44.48046 108.09339,-134.56676 289.2883,-142.72301 181.19489,-8.15625 452.10849,80.16406 593.11319,-18.98437 141.0046,-99.14844 167.6472,-234.482865 358.52,-208.823874 C 1843.8993,54.795088 1920,119.21974 1920,119.21974 V 1099 L 0,1095.3971 Z"/>
      <ellipse
         cx="692.75403"
         cy="83.683998"
         rx="75.246002"
         ry="45"
         transform="rotate(-41,692.754,83.684)"/>
      <path d="m 1125.4933,189.14062 c 0,-44.03515 54.2737,-15.60156 163.01,-47.96093 108.7364,-32.35938 124.8447,-62.750003 174.2978,-41.36719 49.4531,21.38281 -53.1003,113.69154 -127.3819,133.36328 -74.2815,19.67174 -209.9259,0 -209.9259,-44.03516 z"/>
    </g>
    <rect
       width="1920"
       height="1099"
       x="0"
       y="0" />
  </g>
</svg>
